<mxfile host="app.diagrams.net" modified="2023-04-09T01:56:28.401Z" agent="Mozilla/5.0 (Macintosh; Intel Mac OS X 10_15_7) AppleWebKit/537.36 (KHTML, like Gecko) Chrome/111.0.0.0 Safari/537.36" version="21.1.5" etag="66G_mT2yWQ10bXT7Le97" type="github">
  <diagram name="第 1 页" id="sqAIG10h1ET2fzMzmzaB">
    <mxGraphModel>
      <root>
        <mxCell id="0" />
        <mxCell id="1" parent="0" />
      </root>
    </mxGraphModel>
  </diagram>
</mxfile>
